<svg width="25" height="25" viewBox="0 0 25 25" fill="none" xmlns="http://www.w3.org/2000/svg">
<path d="M3.125 4.29688C3.125 3.15727 3.57771 2.06435 4.38353 1.25853C5.18935 0.452705 6.28227 7.3993e-08 7.42188 7.3993e-08C8.95781 7.3993e-08 10.3484 0.65625 11.4375 1.925C11.8562 2.42188 12.2141 2.96875 12.5 3.55312C12.7859 2.96719 13.1422 2.42031 13.5625 1.92188C14.65 0.65625 16.0406 7.3993e-08 17.5781 7.3993e-08C18.3136 -0.000136401 19.0368 0.188518 19.6785 0.547904C20.3202 0.907289 20.8589 1.42537 21.2431 2.05257C21.6273 2.67976 21.844 3.39505 21.8726 4.12999C21.9011 4.86492 21.7406 5.59488 21.4062 6.25H22.2656C23.775 6.25 25 7.475 25 8.98438V12.1094C25 13.2 24.3609 14.1422 23.4375 14.5812V22.2656C23.4375 22.9908 23.1494 23.6863 22.6366 24.1991C22.1238 24.7119 21.4283 25 20.7031 25H4.29688C3.57167 25 2.87617 24.7119 2.36338 24.1991C1.85059 23.6863 1.5625 22.9908 1.5625 22.2656V14.5812C0.639062 14.1406 0 13.2 0 12.1094V8.98438C0 7.475 1.225 6.25 2.73438 6.25H3.59375C3.29375 5.66406 3.125 5 3.125 4.29688ZM11.3281 14.8438H3.90625V22.2656C3.90625 22.4813 4.08125 22.6562 4.29688 22.6562H11.3281V14.8438ZM13.6719 14.8438V22.6562H20.7031C20.8067 22.6562 20.9061 22.6151 20.9793 22.5418C21.0526 22.4686 21.0938 22.3692 21.0938 22.2656V14.8438H13.6719ZM13.6719 8.59375V12.5H22.2656C22.3692 12.5 22.4686 12.4588 22.5418 12.3856C22.6151 12.3123 22.6562 12.213 22.6562 12.1094V8.98438C22.6562 8.88077 22.6151 8.78142 22.5418 8.70816C22.4686 8.6349 22.3692 8.59375 22.2656 8.59375H13.6719ZM2.73438 8.59375C2.63077 8.59375 2.53142 8.6349 2.45816 8.70816C2.38491 8.78142 2.34375 8.88077 2.34375 8.98438V12.1094C2.34375 12.325 2.51875 12.5 2.73438 12.5H11.3281V8.59375H2.73438ZM7.42188 2.34375C6.90387 2.34375 6.40709 2.54953 6.04081 2.91581C5.67453 3.28209 5.46875 3.77887 5.46875 4.29688C5.46875 4.81488 5.67453 5.31166 6.04081 5.67794C6.40709 6.04422 6.90387 6.25 7.42188 6.25H11.0297C10.6656 4.97188 10.1828 4.06094 9.65781 3.44844C8.98594 2.66406 8.22812 2.34375 7.42188 2.34375ZM13.9703 6.25H17.5781C18.0961 6.25 18.5929 6.04422 18.9592 5.67794C19.3255 5.31166 19.5312 4.81488 19.5312 4.29688C19.5312 3.77887 19.3255 3.28209 18.9592 2.91581C18.5929 2.54953 18.0961 2.34375 17.5781 2.34375C16.7719 2.34375 16.0156 2.66406 15.3438 3.44844C14.8172 4.06094 14.3344 4.97188 13.9703 6.25Z" fill="#D27C2C"/>
</svg>
