<svg width="25" height="26" viewBox="0 0 25 26" fill="none" xmlns="http://www.w3.org/2000/svg">
<path d="M12.3916 9.90476V6.19048H8.6741V3.71429H12.3916V0H14.8699V3.71429H18.5874V6.19048H14.8699V9.90476H12.3916ZM7.43494 26C6.75341 26 6.17018 25.7577 5.68525 25.2732C5.1995 24.7879 4.95663 24.2048 4.95663 23.5238C4.95663 22.8429 5.1995 22.2597 5.68525 21.7744C6.17018 21.2899 6.75341 21.0476 7.43494 21.0476C8.11648 21.0476 8.69971 21.2899 9.18463 21.7744C9.67038 22.2597 9.91326 22.8429 9.91326 23.5238C9.91326 24.2048 9.67038 24.7879 9.18463 25.2732C8.69971 25.7577 8.11648 26 7.43494 26ZM19.8265 26C19.145 26 18.5618 25.7577 18.0768 25.2732C17.5911 24.7879 17.3482 24.2048 17.3482 23.5238C17.3482 22.8429 17.5911 22.2597 18.0768 21.7744C18.5618 21.2899 19.145 21.0476 19.8265 21.0476C20.5081 21.0476 21.0917 21.2899 21.5774 21.7744C22.0624 22.2597 22.3048 22.8429 22.3048 23.5238C22.3048 24.2048 22.0624 24.7879 21.5774 25.2732C21.0917 25.7577 20.5081 26 19.8265 26ZM7.43494 19.8095C6.50558 19.8095 5.79306 19.4018 5.2974 18.5863C4.80174 17.7716 4.79141 16.9619 5.26642 16.1571L6.93928 13.1238L2.47831 3.71429H0V1.2381H4.05824L9.32466 12.381H18.0297L22.8315 3.71429L25 4.89048L20.1983 13.5571C19.9711 13.9698 19.6716 14.2897 19.2999 14.5167C18.9281 14.7437 18.5048 14.8571 18.0297 14.8571H8.79802L7.43494 17.3333H22.3048V19.8095H7.43494Z" fill="#D27C2C"/>
</svg>
