<svg width="24" height="24" viewBox="0 0 24 24" fill="none" xmlns="http://www.w3.org/2000/svg">
<path d="M2.3999 8.09999C2.3999 7.22477 2.74758 6.38541 3.36645 5.76654C3.98532 5.14767 4.82469 4.79999 5.6999 4.79999H18.2999C19.1751 4.79999 20.0145 5.14767 20.6334 5.76654C21.2522 6.38541 21.5999 7.22477 21.5999 8.09999V15.9C21.5999 16.7752 21.2522 17.6146 20.6334 18.2334C20.0145 18.8523 19.1751 19.2 18.2999 19.2H5.6999C4.82469 19.2 3.98532 18.8523 3.36645 18.2334C2.74758 17.6146 2.3999 16.7752 2.3999 15.9V8.09999ZM5.6999 5.99999C5.14295 5.99999 4.6088 6.22124 4.21498 6.61506C3.82115 7.00889 3.5999 7.54303 3.5999 8.09999V15.9C3.5999 17.0592 4.5407 18 5.6999 18H18.2999C18.8569 18 19.391 17.7787 19.7848 17.3849C20.1787 16.9911 20.3999 16.4569 20.3999 15.9V8.09999C20.3999 7.54303 20.1787 7.00889 19.7848 6.61506C19.391 6.22124 18.8569 5.99999 18.2999 5.99999H5.6999ZM13.1999 7.79999C13.1999 7.64086 13.2631 7.48825 13.3756 7.37572C13.4882 7.2632 13.6408 7.19999 13.7999 7.19999H16.1999C16.359 7.19999 16.5116 7.2632 16.6242 7.37572C16.7367 7.48825 16.7999 7.64086 16.7999 7.79999V10.2C16.7999 10.3591 16.7367 10.5117 16.6242 10.6243C16.5116 10.7368 16.359 10.8 16.1999 10.8C16.0408 10.8 15.8882 10.7368 15.7756 10.6243C15.6631 10.5117 15.5999 10.3591 15.5999 10.2V9.24839L13.6247 11.2248C13.512 11.3375 13.3592 11.4007 13.1999 11.4007C13.0406 11.4007 12.8878 11.3375 12.7751 11.2248C12.6624 11.1121 12.5991 10.9593 12.5991 10.8C12.5991 10.6407 12.6624 10.4879 12.7751 10.3752L14.7515 8.39999H13.7999C13.6408 8.39999 13.4882 8.33677 13.3756 8.22425C13.2631 8.11173 13.1999 7.95912 13.1999 7.79999ZM10.3751 12.7752C10.4878 12.6625 10.6406 12.5992 10.7999 12.5992C10.9592 12.5992 11.112 12.6625 11.2247 12.7752C11.3374 12.8879 11.4007 13.0407 11.4007 13.2C11.4007 13.3593 11.3374 13.5121 11.2247 13.6248L9.2483 15.6H10.1999C10.359 15.6 10.5116 15.6632 10.6242 15.7757C10.7367 15.8882 10.7999 16.0409 10.7999 16.2C10.7999 16.3591 10.7367 16.5117 10.6242 16.6243C10.5116 16.7368 10.359 16.8 10.1999 16.8H7.7999C7.64077 16.8 7.48816 16.7368 7.37564 16.6243C7.26312 16.5117 7.1999 16.3591 7.1999 16.2V13.8C7.1999 13.6409 7.26312 13.4882 7.37564 13.3757C7.48816 13.2632 7.64077 13.2 7.7999 13.2C7.95903 13.2 8.11164 13.2632 8.22417 13.3757C8.33669 13.4882 8.3999 13.6409 8.3999 13.8V14.7516L10.3751 12.7752Z" fill="#D27C2C"/>
</svg>
