<svg width="25" height="29" viewBox="0 0 25 29" fill="none" xmlns="http://www.w3.org/2000/svg">
<path d="M22.2222 6.90476H19.4444C19.4444 3.0381 16.3889 0 12.5 0C8.61111 0 5.55556 3.0381 5.55556 6.90476H2.77778C1.25 6.90476 0 8.14762 0 9.66667V26.2381C0 27.7571 1.25 29 2.77778 29H22.2222C23.75 29 25 27.7571 25 26.2381V9.66667C25 8.14762 23.75 6.90476 22.2222 6.90476ZM12.5 2.7619C14.8611 2.7619 16.6667 4.55714 16.6667 6.90476H8.33333C8.33333 4.55714 10.1389 2.7619 12.5 2.7619ZM22.2222 26.2381H2.77778V9.66667H22.2222V26.2381ZM12.5 15.1905C10.1389 15.1905 8.33333 13.3952 8.33333 11.0476H5.55556C5.55556 14.9143 8.61111 17.9524 12.5 17.9524C16.3889 17.9524 19.4444 14.9143 19.4444 11.0476H16.6667C16.6667 13.3952 14.8611 15.1905 12.5 15.1905Z" fill="#D27C2C"/>
</svg>
